<svg width="86" height="10" xmlns="http://www.w3.org/2000/svg">

 <g>
  <title>background</title>
  <rect fill="none" id="canvas_background" height="12" width="88" y="-1" x="-1"/>
 </g>
 <g>
  <title>Layer 1</title>
  <g fill="white" id="svg_1">
   <path id="svg_2" d="m85.222272,-0.25038c-3.2,0 -4.7,2.5 -6.1,4.6c-1.2,2 -2.3,3.7 -4.4,3.7s-3.1,-1.7 -4.4,-3.7c-1.4,-2.2 -2.9,-4.6 -6.1,-4.6c-3.2,0 -4.7,2.5 -6.1,4.6c-1.2,2 -2.3,3.7 -4.4,3.7c-2.1,0 -3.1,-1.7 -4.4,-3.7c-1.4,-2.2 -2.9,-4.6 -6.1,-4.6c-3.2,0 -4.7,2.5 -6.1,4.6c-1.2,2 -2.3,3.7 -4.4,3.7c-2,0 -3.1,-1.7 -4.4,-3.7c-1.4,-2.2 -2.9,-4.6 -6.1,-4.6c-3.2,0 -4.7,2.5 -6.1,4.6c-1.2,2 -2.3,3.7 -4.4,3.7c-2,0 -3.1,-1.7 -4.4,-3.7c-1.4,-2.2 -2.9,-4.6 -6.1,-4.6c-0.6,0 -1,0.4 -1,1s0.4,1 1,1c2,0 3.1,1.7 4.4,3.7c1.4,2.2 2.9,4.6 6.1,4.6c3.2,0 4.7,-2.5 6.1,-4.6c1.2,-2 2.3,-3.7 4.4,-3.7s3.1,1.7 4.4,3.7c1.4,2.2 2.9,4.6 6.1,4.6c3.2,0 4.7,-2.5 6.1,-4.6c1.2,-2 2.3,-3.7 4.4,-3.7c2.1,0 3.1,1.7 4.4,3.7c1.4,2.2 2.9,4.6 6.1,4.6c3.2,0 4.7,-2.5 6.1,-4.6c1.2,-2 2.3,-3.7 4.4,-3.7c2.1,0 3.1,1.7 4.4,3.7c1.4,2.2 2.9,4.6 6.1,4.6s4.7,-2.5 6.1,-4.6c1.2,-2 2.3,-3.7 4.4,-3.7c0.6,0 1,-0.4 1,-1s-0.4,-1 -1,-1z"/>
  </g>
 </g>
</svg>